<svg width="259" height="259" viewBox="0 0 259 259" fill="none"
    xmlns="http://www.w3.org/2000/svg">
    <path d="M129.087 257.088C199.78 257.088 257.087 199.78 257.087 129.088C257.087 58.3951 199.78 1.08752 129.087 1.08752C58.395 1.08752 1.0874 58.3951 1.0874 129.088C1.0874 199.78 58.395 257.088 129.087 257.088Z" fill="#0F1A20"/>
    <path opacity="0.85" d="M129.087 257.088C199.78 257.088 257.087 199.78 257.087 129.088C257.087 58.3951 199.78 1.08752 129.087 1.08752C58.395 1.08752 1.0874 58.3951 1.0874 129.088C1.0874 199.78 58.395 257.088 129.087 257.088Z" stroke="#234A53" stroke-width="2.175"/>
    <path d="M83.0663 84.5053C73.926 96.0559 68.5781 112.468 68.5781 133.742C68.5781 180.288 94.1781 203.56 129.087 203.56C163.996 203.56 189.596 180.288 189.596 133.742C189.596 112.492 184.261 96.0932 175.139 84.5448L157.014 38.3239L140.035 64.7358C136.508 64.1945 132.852 63.9239 129.087 63.9239C125.323 63.9239 121.667 64.1945 118.139 64.7358L101.16 38.3239L83.0663 84.5053Z" fill="#16282F"/>
    <path opacity="0.15" d="M105.815 150.033C122.524 150.033 136.069 136.488 136.069 119.778C136.069 103.069 122.524 89.5239 105.815 89.5239C89.1055 89.5239 75.5601 103.069 75.5601 119.778C75.5601 136.488 89.1055 150.033 105.815 150.033Z" fill="#F4C75A"/>
    <path opacity="0.15" d="M152.36 150.033C169.069 150.033 182.615 136.488 182.615 119.778C182.615 103.069 169.069 89.5239 152.36 89.5239C135.651 89.5239 122.105 103.069 122.105 119.778C122.105 136.488 135.651 150.033 152.36 150.033Z" fill="#F4C75A"/>
    <g filter="url(#filter0_f_64_19)">
        <path d="M105.815 135.138C114.298 135.138 121.175 128.262 121.175 119.778C121.175 111.295 114.298 104.418 105.815 104.418C97.3315 104.418 90.4546 111.295 90.4546 119.778C90.4546 128.262 97.3315 135.138 105.815 135.138Z" fill="#FFE08A"/>
        <path d="M152.36 135.138C160.843 135.138 167.72 128.262 167.72 119.778C167.72 111.295 160.843 104.418 152.36 104.418C143.877 104.418 137 111.295 137 119.778C137 128.262 143.877 135.138 152.36 135.138Z" fill="#FFE08A"/>
    </g>
    <path d="M105.815 134.44C113.912 134.44 120.476 127.876 120.476 119.778C120.476 111.681 113.912 105.117 105.815 105.117C97.7171 105.117 91.1528 111.681 91.1528 119.778C91.1528 127.876 97.7171 134.44 105.815 134.44Z" fill="#F4C75A"/>
    <path d="M152.36 134.44C160.458 134.44 167.022 127.876 167.022 119.778C167.022 111.681 160.458 105.117 152.36 105.117C144.263 105.117 137.698 111.681 137.698 119.778C137.698 127.876 144.263 134.44 152.36 134.44Z" fill="#F4C75A"/>
    <path opacity="0.92" d="M106.746 120.477C109.188 120.477 111.167 118.497 111.167 116.055C111.167 113.613 109.188 111.633 106.746 111.633C104.303 111.633 102.324 113.613 102.324 116.055C102.324 118.497 104.303 120.477 106.746 120.477Z" fill="#FFF6DA"/>
    <path opacity="0.92" d="M153.291 120.477C155.733 120.477 157.713 118.497 157.713 116.055C157.713 113.613 155.733 111.633 153.291 111.633C150.849 111.633 148.869 113.613 148.869 116.055C148.869 118.497 150.849 120.477 153.291 120.477Z" fill="#FFF6DA"/>
    <path d="M123.207 127.884H134.975C133.307 133.12 131.948 135.432 129.087 139.119C126.11 135.375 124.774 133.009 123.207 127.884Z" fill="#0A151A"/>
    <defs>
        <filter id="filter0_f_64_19" x="73.0546" y="87.0185" width="112.066" height="65.52" filterUnits="userSpaceOnUse" color-interpolation-filters="sRGB">
            <feFlood flood-opacity="0" result="BackgroundImageFix"/>
            <feBlend mode="normal" in="SourceGraphic" in2="BackgroundImageFix" result="shape"/>
            <feGaussianBlur stdDeviation="8.7" result="effect1_foregroundBlur_64_19"/>
        </filter>
    </defs>
</svg>
